<?xml version="1.0" encoding="UTF-8"?>
<svg xmlns="http://www.w3.org/2000/svg" xmlns:xlink="http://www.w3.org/1999/xlink" width="1080pt" height="1920pt" viewBox="0 0 1080 1920" version="1.1">
<defs>
<clipPath id="clip1">
  <path d="M 226 0 L 1080 0 L 1080 1080 L 226 1080 Z M 226 0 "/>
</clipPath>
</defs>
<g id="surface719">
<path style=" stroke:none;fill-rule:nonzero;fill:rgb(15.686275%,16.470589%,21.176471%);fill-opacity:1;" d="M 0 -0.0390625 L 1920 -0.0390625 L 1920 1080 L 0 1080 Z M 0 -0.0390625 "/>
<g clip-path="url(#clip1)" clip-rule="nonzero">
<path style=" stroke:none;fill-rule:nonzero;fill:rgb(16.862746%,18.039216%,23.137255%);fill-opacity:1;" d="M 1693.058594 539.980469 C 1693.058594 944.835938 1364.855469 1273.039062 960 1273.039062 C 555.144531 1273.039062 226.941406 944.835938 226.941406 539.980469 C 226.941406 135.125 555.144531 -193.078125 960 -193.078125 C 1364.855469 -193.078125 1693.058594 135.125 1693.058594 539.980469 Z M 1693.058594 539.980469 "/>
</g>
<path style=" stroke:none;fill-rule:nonzero;fill:rgb(21.176471%,22.352941%,28.627452%);fill-opacity:1;" d="M 1395.253906 539.980469 C 1395.253906 780.367188 1200.386719 975.238281 960 975.238281 C 719.613281 975.238281 524.746094 780.367188 524.746094 539.980469 C 524.746094 299.597656 719.613281 104.726562 960 104.726562 C 1200.386719 104.726562 1395.253906 299.597656 1395.253906 539.980469 Z M 1395.253906 539.980469 "/>
<path style=" stroke:none;fill-rule:nonzero;fill:rgb(25.490198%,26.666668%,34.509805%);fill-opacity:1;" d="M 1266.292969 539.980469 C 1266.292969 709.140625 1129.160156 846.273438 960 846.273438 C 790.839844 846.273438 653.707031 709.140625 653.707031 539.980469 C 653.707031 370.820312 790.839844 233.691406 960 233.691406 C 1129.160156 233.691406 1266.292969 370.820312 1266.292969 539.980469 Z M 1266.292969 539.980469 "/>
<path style=" stroke:none;fill-rule:nonzero;fill:rgb(29.803923%,31.37255%,40.392157%);fill-opacity:1;" d="M 1202.480469 539.980469 C 1202.480469 673.898438 1093.917969 782.464844 960 782.464844 C 826.082031 782.464844 717.519531 673.898438 717.519531 539.980469 C 717.519531 406.0625 826.082031 297.5 960 297.5 C 1093.917969 297.5 1202.480469 406.0625 1202.480469 539.980469 Z M 1202.480469 539.980469 "/>
<path style=" stroke:none;fill-rule:nonzero;fill:rgb(34.117648%,35.686275%,45.882353%);fill-opacity:1;" d="M 1169.417969 539.980469 C 1169.417969 655.640625 1075.65625 749.398438 960 749.398438 C 844.34375 749.398438 750.582031 655.640625 750.582031 539.980469 C 750.582031 424.324219 844.34375 330.5625 960 330.5625 C 1075.65625 330.5625 1169.417969 424.324219 1169.417969 539.980469 Z M 1169.417969 539.980469 "/>
<path style=" stroke:none;fill-rule:nonzero;fill:rgb(38.431373%,40.392157%,51.764709%);fill-opacity:1;" d="M 1149.472656 539.980469 C 1149.472656 644.625 1064.644531 729.453125 960 729.453125 C 855.355469 729.453125 770.527344 644.625 770.527344 539.980469 C 770.527344 435.335938 855.355469 350.507812 960 350.507812 C 1064.644531 350.507812 1149.472656 435.335938 1149.472656 539.980469 Z M 1149.472656 539.980469 "/>
<path style=" stroke:none;fill-rule:nonzero;fill:rgb(54.11765%,55.686277%,65.882355%);fill-opacity:1;" d="M 1140 539.980469 C 1140 639.390625 1059.410156 719.980469 960 719.980469 C 860.589844 719.980469 780 639.390625 780 539.980469 C 780 440.570312 860.589844 359.980469 960 359.980469 C 1059.410156 359.980469 1140 440.570312 1140 539.980469 Z M 1140 539.980469 "/>
<path style=" stroke:none;fill-rule:nonzero;fill:rgb(48.627451%,50.196081%,61.176473%);fill-opacity:1;" d="M 1028.570312 415.355469 C 1028.570312 429.558594 1017.058594 441.070312 1002.855469 441.070312 C 988.65625 441.070312 977.144531 429.558594 977.144531 415.355469 C 977.144531 401.15625 988.65625 389.644531 1002.855469 389.644531 C 1017.058594 389.644531 1028.570312 401.15625 1028.570312 415.355469 Z M 1028.570312 415.355469 "/>
<path style=" stroke:none;fill-rule:nonzero;fill:rgb(48.627451%,50.196081%,61.176473%);fill-opacity:1;" d="M 1112.5 564.820312 C 1112.5 597.070312 1086.355469 623.214844 1054.105469 623.214844 C 1021.859375 623.214844 995.714844 597.070312 995.714844 564.820312 C 995.714844 532.570312 1021.859375 506.429688 1054.105469 506.429688 C 1086.355469 506.429688 1112.5 532.570312 1112.5 564.820312 Z M 1112.5 564.820312 "/>
<path style=" stroke:none;fill-rule:nonzero;fill:rgb(48.627451%,50.196081%,61.176473%);fill-opacity:1;" d="M 890 589.820312 C 890 607.476562 875.6875 621.785156 858.035156 621.785156 C 840.382812 621.785156 826.070312 607.476562 826.070312 589.820312 C 826.070312 572.167969 840.382812 557.855469 858.035156 557.855469 C 875.6875 557.855469 890 572.167969 890 589.820312 Z M 890 589.820312 "/>
<path style=" stroke:none;fill-rule:nonzero;fill:rgb(48.627451%,50.196081%,61.176473%);fill-opacity:1;" d="M 1026.070312 675.355469 C 1026.070312 682.457031 1020.316406 688.214844 1013.214844 688.214844 C 1006.113281 688.214844 1000.355469 682.457031 1000.355469 675.355469 C 1000.355469 668.257812 1006.113281 662.5 1013.214844 662.5 C 1020.316406 662.5 1026.070312 668.257812 1026.070312 675.355469 Z M 1026.070312 675.355469 "/>
<path style=" stroke:none;fill-rule:evenodd;fill:rgb(15.686275%,16.470589%,21.176471%);fill-opacity:1;" d="M 845.523438 856.941406 C 845.523438 856.941406 847.195312 855.914062 849.875 855.25 C 852.558594 854.585938 857.457031 852.875 857.839844 848.945312 C 857.839844 848.945312 860.71875 851.496094 862.980469 849.433594 C 865.238281 847.371094 870.398438 842.824219 877.054688 848.46875 C 877.054688 848.46875 888.386719 840.175781 896.144531 849.6875 C 896.144531 849.6875 903.25 830.214844 888.007812 820.398438 C 888.007812 820.398438 883.320312 837.375 861.820312 834.097656 C 861.820312 834.097656 860.21875 834.175781 860.996094 832.011719 C 861.773438 829.851562 862.90625 827.519531 862.414062 826.855469 C 862.414062 826.855469 865.117188 825.980469 865.03125 822.585938 C 865.03125 822.585938 862.804688 822.140625 860.804688 824.625 L 857.300781 824.171875 L 854.308594 822.289062 C 854.34375 819.101562 852.34375 818.027344 852.34375 818.027344 C 850.121094 820.59375 851.648438 822.984375 851.648438 822.984375 C 850.84375 823.183594 850.234375 825.703125 849.457031 827.867188 C 848.683594 830.027344 847.496094 828.953125 847.496094 828.953125 C 828.828125 817.792969 836.015625 801.714844 836.015625 801.714844 C 818.011719 799.585938 811.097656 819.128906 811.097656 819.128906 C 823.136719 816.722656 826.597656 830.339844 826.597656 830.339844 C 835.320312 830.21875 836.40625 837.011719 836.835938 840.042969 C 837.269531 843.070312 841.117188 842.933594 841.117188 842.933594 C 838.910156 846.207031 841.597656 850.648438 843.242188 852.867188 C 844.886719 855.085938 845.523438 856.941406 845.523438 856.941406 "/>
<path style=" stroke:none;fill-rule:nonzero;fill:rgb(74.117649%,57.647061%,97.647059%);fill-opacity:1;" d="M 854.386719 828.140625 C 853.832031 828.746094 852.886719 828.789062 852.277344 828.230469 C 851.671875 827.671875 851.632812 826.726562 852.191406 826.121094 C 852.75 825.511719 853.691406 825.472656 854.300781 826.03125 C 854.90625 826.589844 854.945312 827.535156 854.386719 828.140625 Z M 854.386719 828.140625 "/>
<path style=" stroke:none;fill-rule:nonzero;fill:rgb(74.117649%,57.647061%,97.647059%);fill-opacity:1;" d="M 859.890625 830.179688 C 859.332031 830.785156 858.390625 830.824219 857.78125 830.265625 C 857.175781 829.707031 857.136719 828.765625 857.691406 828.15625 C 858.25 827.550781 859.195312 827.511719 859.804688 828.066406 C 860.410156 828.625 860.449219 829.570312 859.890625 830.179688 Z M 859.890625 830.179688 "/>
<path style=" stroke:none;fill-rule:evenodd;fill:rgb(15.686275%,16.470589%,21.176471%);fill-opacity:1;" d="M 1075.355469 777.609375 C 1075.355469 777.609375 1075.859375 776.09375 1077.175781 774.269531 C 1078.496094 772.445312 1080.644531 768.800781 1078.816406 766.15625 C 1078.816406 766.15625 1081.953125 766.230469 1082.273438 763.757812 C 1082.59375 761.285156 1083.414062 755.742188 1090.523438 755.753906 C 1090.523438 755.753906 1093.214844 744.632812 1103.050781 746.472656 C 1103.050781 746.472656 1097.230469 730.617188 1082.582031 732.523438 C 1082.582031 732.523438 1088.589844 745.554688 1073.484375 754.824219 C 1073.484375 754.824219 1072.53125 755.714844 1071.875 753.957031 C 1071.222656 752.203125 1070.703125 750.15625 1070.046875 750 C 1070.046875 750 1071.269531 748.039062 1069.429688 745.96875 C 1069.429688 745.96875 1067.8125 746.863281 1067.871094 749.460938 L 1065.453125 751.023438 L 1062.601562 751.421875 C 1060.945312 749.421875 1059.136719 749.804688 1059.136719 749.804688 C 1059.101562 752.570312 1061.308594 753.257812 1061.308594 753.257812 C 1060.914062 753.800781 1061.863281 755.691406 1062.515625 757.445312 C 1063.167969 759.199219 1061.863281 759.152344 1061.863281 759.152344 C 1044.378906 762.027344 1040.394531 748.238281 1040.394531 748.238281 C 1028.070312 756.382812 1034.042969 772.179688 1034.042969 772.179688 C 1040.273438 764.355469 1049.589844 771.007812 1049.589844 771.007812 C 1054.953125 766.34375 1059.199219 770 1061.0625 771.660156 C 1062.925781 773.320312 1065.246094 771.210938 1065.246094 771.210938 C 1065.59375 774.410156 1069.605469 775.757812 1071.796875 776.273438 C 1073.984375 776.789062 1075.355469 777.609375 1075.355469 777.609375 "/>
<path style=" stroke:none;fill-rule:nonzero;fill:rgb(74.117649%,57.647061%,97.647059%);fill-opacity:1;" d="M 1065.726562 755.023438 C 1065.699219 755.695312 1065.132812 756.214844 1064.460938 756.1875 C 1063.789062 756.160156 1063.269531 755.59375 1063.296875 754.921875 C 1063.324219 754.25 1063.890625 753.730469 1064.5625 753.757812 C 1065.234375 753.785156 1065.753906 754.351562 1065.726562 755.023438 Z M 1065.726562 755.023438 "/>
<path style=" stroke:none;fill-rule:nonzero;fill:rgb(74.117649%,57.647061%,97.647059%);fill-opacity:1;" d="M 1070.222656 753.398438 C 1070.195312 754.066406 1069.628906 754.589844 1068.957031 754.5625 C 1068.285156 754.535156 1067.765625 753.964844 1067.792969 753.296875 C 1067.820312 752.625 1068.386719 752.101562 1069.058594 752.128906 C 1069.730469 752.160156 1070.25 752.726562 1070.222656 753.398438 Z M 1070.222656 753.398438 "/>
<path style=" stroke:none;fill-rule:evenodd;fill:rgb(15.686275%,16.470589%,21.176471%);fill-opacity:1;" d="M 728.597656 546.628906 C 728.597656 546.628906 731.519531 545.183594 736.0625 544.488281 C 740.601562 543.792969 748.976562 541.699219 750.203125 535.246094 C 750.203125 535.246094 754.589844 539.910156 758.644531 536.835938 C 762.699219 533.761719 771.933594 527.007812 782.097656 537.363281 C 782.097656 537.363281 802.125 525.339844 813.539062 542.269531 C 813.539062 542.269531 828.25 511.089844 804.488281 492.527344 C 804.488281 492.527344 794.15625 519.9375 759.039062 511.261719 C 759.039062 511.261719 756.375 511.144531 757.988281 507.679688 C 759.601562 504.214844 761.832031 500.527344 761.117188 499.351562 C 761.117188 499.351562 765.722656 498.316406 766.097656 492.679688 C 766.097656 492.679688 762.480469 491.601562 758.785156 495.410156 L 753.050781 494.136719 L 748.386719 490.566406 C 748.921875 485.289062 745.769531 483.210938 745.769531 483.210938 C 741.703125 487.121094 743.867188 491.316406 743.867188 491.316406 C 742.507812 491.523438 741.121094 495.605469 739.503906 499.070312 C 737.894531 502.53125 736.089844 500.570312 736.089844 500.570312 C 706.859375 479.269531 721.195312 453.722656 721.195312 453.722656 C 691.691406 447.472656 677.289062 478.796875 677.289062 478.796875 C 697.589844 476.636719 701.269531 499.710938 701.269531 499.710938 C 715.738281 500.828125 716.507812 512.242188 716.761719 517.328125 C 717.019531 522.410156 723.410156 522.761719 723.410156 522.761719 C 719.261719 527.855469 723.046875 535.613281 725.433594 539.539062 C 727.820312 543.460938 728.597656 546.628906 728.597656 546.628906 "/>
<path style=" stroke:none;fill-rule:nonzero;fill:rgb(74.117649%,57.647061%,97.647059%);fill-opacity:1;" d="M 747.632812 500.269531 C 746.613281 501.1875 745.042969 501.113281 744.125 500.097656 C 743.203125 499.078125 743.277344 497.507812 744.296875 496.589844 C 745.3125 495.667969 746.882812 495.746094 747.804688 496.761719 C 748.722656 497.777344 748.648438 499.347656 747.632812 500.269531 Z M 747.632812 500.269531 "/>
<path style=" stroke:none;fill-rule:nonzero;fill:rgb(74.117649%,57.647061%,97.647059%);fill-opacity:1;" d="M 756.4375 504.472656 C 755.421875 505.394531 753.851562 505.316406 752.929688 504.300781 C 752.007812 503.285156 752.085938 501.714844 753.101562 500.792969 C 754.117188 499.875 755.6875 499.949219 756.609375 500.964844 C 757.53125 501.980469 757.453125 503.554688 756.4375 504.472656 Z M 756.4375 504.472656 "/>
</g>
</svg>
